<!-- Generated by IcoMoon.io -->
<svg version="1.1" xmlns="http://www.w3.org/2000/svg" width="1934" height="1024" viewBox="0 0 1934 1024">
<title></title>
<g id="icomoon-ignore">
</g>
<path d="M653.107 419.050h-0.031c-25.741 0-46.607 20.333-46.607 45.417v0.030c0 25.083 20.866 45.418 46.607 45.418h0.031c25.74 0 46.606-20.334 46.606-45.418v-0.030c0-25.083-20.866-45.417-46.606-45.417z"></path>
<path d="M997.111 404.531c-0.073-34.84-14.305-68.233-39.582-92.87-25.277-24.639-59.539-38.515-95.29-38.595v0c-35.761 0.064-70.040 13.933-95.331 38.573-25.289 24.64-39.53 58.041-39.604 92.892v192.122c0 0 269.776-29.281 269.807-192.092v-0.030z"></path>
<path d="M511.999 659.706c0.065 24.243 9.974 47.474 27.56 64.618s41.422 26.807 66.297 26.879c24.871-0.072 48.701-9.73 66.287-26.869 17.587-17.137 27.499-40.362 27.572-64.597v-133.681c0 0-187.716 20.389-187.716 133.65zM605.856 683.659c-4.861 0-9.613-1.405-13.654-4.037s-7.192-6.373-9.052-10.75c-1.86-4.376-2.347-9.192-1.398-13.839 0.948-4.646 3.289-8.913 6.727-12.263s7.817-5.631 12.584-6.556c4.767-0.924 9.71-0.449 14.201 1.363 4.491 1.814 8.33 4.883 11.031 8.822s4.142 8.57 4.142 13.306c0.013 3.154-0.614 6.277-1.844 9.194s-3.038 5.567-5.321 7.801-4.997 4.006-7.985 5.216c-2.988 1.209-6.192 1.832-9.428 1.832v-0.090z"></path>
<path d="M797.458 668.799h-19.2v19.834h-10v-48.533h31.6v8.1h-21.6v12.534h19.2v8.066zM845.525 665.467c0 4.778-0.844 8.967-2.534 12.567-1.688 3.6-4.111 6.377-7.266 8.333-3.133 1.956-6.733 2.933-10.801 2.933-4.022 0-7.611-0.967-10.766-2.9s-5.6-4.689-7.334-8.266c-1.733-3.6-2.611-7.733-2.633-12.401v-2.4c0-4.778 0.856-8.978 2.567-12.6 1.733-3.645 4.167-6.434 7.3-8.367 3.155-1.956 6.755-2.933 10.8-2.933s7.633 0.977 10.767 2.933c3.155 1.933 5.589 4.722 7.3 8.367 1.733 3.622 2.6 7.811 2.6 12.567v2.166zM835.392 663.266c0-5.088-0.911-8.955-2.734-11.6-1.822-2.644-4.421-3.966-7.799-3.966-3.355 0-5.945 1.311-7.766 3.933-1.823 2.6-2.744 6.422-2.767 11.467v2.367c0 4.955 0.911 8.8 2.733 11.534 1.823 2.733 4.445 4.099 7.867 4.099 3.356 0 5.934-1.311 7.733-3.933 1.8-2.644 2.711-6.489 2.734-11.534v-2.367zM877.958 675.9c0-1.889-0.667-3.334-2-4.334-1.333-1.022-3.733-2.089-7.2-3.199-3.467-1.133-6.211-2.245-8.234-3.334-5.51-2.978-8.266-6.989-8.266-12.033 0-2.623 0.733-4.956 2.199-7.001 1.489-2.066 3.611-3.677 6.367-4.833 2.778-1.155 5.889-1.733 9.333-1.733 3.467 0 6.556 0.634 9.267 1.9 2.711 1.245 4.811 3.011 6.3 5.3 1.511 2.289 2.266 4.889 2.266 7.801h-10c0-2.223-0.7-3.945-2.1-5.167-1.399-1.245-3.367-1.867-5.899-1.867-2.445 0-4.345 0.522-5.7 1.567-1.355 1.022-2.033 2.378-2.033 4.066 0 1.578 0.788 2.9 2.367 3.966 1.6 1.067 3.945 2.067 7.034 3 5.689 1.711 9.833 3.833 12.432 6.367 2.601 2.533 3.9 5.689 3.9 9.466 0 4.201-1.588 7.5-4.766 9.9-3.178 2.378-7.456 3.567-12.834 3.567-3.733 0-7.133-0.678-10.199-2.033-3.067-1.378-5.411-3.255-7.034-5.633-1.6-2.378-2.4-5.134-2.4-8.267h10.033c0 5.356 3.199 8.034 9.599 8.034 2.378 0 4.234-0.478 5.567-1.434 1.333-0.977 2-2.334 2-4.066zM931.325 648.2h-14.866v40.433h-10v-40.433h-14.667v-8.1h39.533v8.1zM966.258 667.6h-19.2v13h22.534v8.033h-32.534v-48.533h32.466v8.1h-22.467v11.567h19.2v7.834zM993.424 670.867h-7.967v17.766h-10v-48.533h18.034c5.733 0 10.156 1.278 13.266 3.833s4.666 6.167 4.666 10.834c0 3.311-0.721 6.077-2.166 8.299-1.422 2.2-3.589 3.956-6.5 5.267l10.501 19.834v0.466h-10.734l-9.1-17.766zM985.458 662.767h8.067c2.511 0 4.456-0.634 5.833-1.9 1.378-1.289 2.066-3.056 2.066-5.3 0-2.289-0.655-4.089-1.966-5.4-1.289-1.312-3.278-1.967-5.967-1.967h-8.034v14.567zM1046.058 671.534v17.1h-10v-48.533h18.933c3.645 0 6.845 0.667 9.601 2 2.777 1.333 4.911 3.234 6.4 5.699 1.489 2.445 2.233 5.234 2.233 8.367 0 4.756-1.634 8.511-4.9 11.266-3.244 2.734-7.744 4.101-13.5 4.101h-8.767zM1046.058 663.434h8.933c2.645 0 4.656-0.622 6.034-1.867 1.401-1.245 2.1-3.022 2.1-5.333 0-2.378-0.7-4.301-2.1-5.767s-3.333-2.222-5.799-2.266h-9.167v15.234zM1109.324 667.6h-19.2v13h22.534v8.033h-32.534v-48.533h32.466v8.1h-22.467v11.567h19.2v7.834zM1155.721 648.2h-14.859v40.433h-10.003v-40.433h-14.666v-8.1h39.529v8.1zM1190.662 667.6h-19.206v13h22.539v8.033h-32.54v-48.533h32.472v8.1h-22.471v11.567h19.206v7.834zM1217.82 670.867h-7.964v17.766h-10.001v-48.533h18.034c5.734 0 10.16 1.278 13.266 3.833 3.118 2.555 4.665 6.167 4.665 10.834 0 3.311-0.717 6.077-2.162 8.299-1.422 2.2-3.584 3.956-6.497 5.267l10.502 19.834v0.466h-10.741l-9.102-17.766zM1209.856 662.767h8.067c2.514 0 4.46-0.634 5.837-1.9 1.377-1.289 2.059-3.056 2.059-5.3 0-2.289-0.649-4.089-1.957-5.4-1.297-1.312-3.277-1.967-5.973-1.967h-8.033v14.567zM1268.622 675.9c0-1.889-0.66-3.334-2.002-4.334-1.331-1.022-3.732-2.089-7.191-3.199-3.47-1.133-6.212-2.245-8.238-3.334-5.507-2.978-8.272-6.989-8.272-12.033 0-2.623 0.74-4.956 2.207-7.001 1.49-2.066 3.607-3.677 6.36-4.833 2.776-1.155 5.894-1.733 9.341-1.733 3.459 0 6.554 0.634 9.262 1.9 2.708 1.245 4.813 3.011 6.303 5.3 1.513 2.289 2.264 4.889 2.264 7.801h-10.001c0-2.223-0.694-3.945-2.094-5.167-1.399-1.245-3.368-1.867-5.905-1.867-2.446 0-4.346 0.522-5.7 1.567-1.354 1.022-2.037 2.378-2.037 4.066 0 1.578 0.796 2.9 2.367 3.966 1.604 1.067 3.948 2.067 7.043 3 5.689 1.711 9.83 3.833 12.425 6.367 2.606 2.533 3.903 5.689 3.903 9.466 0 4.201-1.593 7.5-4.767 9.9-3.174 2.378-7.452 3.567-12.834 3.567-3.732 0-7.134-0.678-10.194-2.033-3.072-1.378-5.416-3.255-7.031-5.633-1.604-2.378-2.401-5.134-2.401-8.267h10.024c0 5.356 3.209 8.034 9.603 8.034 2.378 0 4.233-0.478 5.564-1.434 1.343-0.977 2.002-2.334 2.002-4.066z"></path>
</svg>
