<!-- Generated by IcoMoon.io -->
<svg version="1.1" xmlns="http://www.w3.org/2000/svg" width="976" height="1024" viewBox="0 0 976 1024">
<title></title>
<g id="icomoon-ignore">
</g>
<path d="M151.111 995.299c0.358 0.010 0.71 0.088 1.036 0.226 0.326 0.141 0.619 0.343 0.863 0.591l4.9 5.137c-3.804 4.158-8.505 7.482-13.782 9.747-6.18 2.472-12.84 3.667-19.54 3.503-6.296 0.124-12.551-0.988-18.376-3.27-5.255-2.093-9.975-5.237-13.843-9.221-3.947-4.132-6.988-8.973-8.943-14.241-2.141-5.873-3.198-12.055-3.124-18.27-0.087-6.256 1.056-12.471 3.369-18.327 2.14-5.301 5.367-10.142 9.494-14.241 4.183-4.020 9.186-7.178 14.701-9.28 6.033-2.229 12.457-3.339 18.927-3.27 6.010-0.138 11.988 0.874 17.58 2.977 4.851 2.008 9.306 4.789 13.169 8.23l-4.104 5.487c-0.283 0.386-0.636 0.722-1.041 0.993-0.484 0.314-1.069 0.46-1.654 0.407-0.636-0.040-1.249-0.243-1.776-0.583l-2.205-1.46-3.063-1.867c-1.322-0.693-2.693-1.298-4.104-1.81-1.817-0.619-3.68-1.107-5.574-1.457-2.404-0.424-4.845-0.619-7.289-0.583-4.659-0.057-9.282 0.776-13.598 2.45-4.025 1.55-7.658 3.898-10.658 6.887-3.054 3.179-5.408 6.911-6.922 10.973-1.725 4.646-2.575 9.547-2.511 14.474-0.074 5.006 0.776 9.983 2.511 14.707 1.495 4.029 3.805 7.737 6.799 10.916 2.806 2.962 6.283 5.28 10.168 6.77 3.998 1.579 8.29 2.374 12.618 2.334 2.5 0.038 4.999-0.119 7.473-0.467 4.039-0.469 7.914-1.807 11.332-3.91 1.715-1.079 3.333-2.289 4.839-3.62 0.63-0.572 1.458-0.903 2.328-0.934z"></path>
<path d="M292.604 969.485c0.076 6.194-1.045 12.345-3.308 18.151-1.996 5.265-5.141 10.069-9.226 14.093-4.086 4.025-9.021 7.178-14.479 9.252-11.993 4.358-25.25 4.358-37.241 0-5.423-2.108-10.325-5.268-14.394-9.28-4.083-4.096-7.251-8.94-9.31-14.238-4.412-11.757-4.412-24.605 0-36.362 2.089-5.301 5.253-10.159 9.31-14.298 4.104-3.886 9.004-6.925 14.394-8.928 11.977-4.437 25.265-4.437 37.241 0 5.441 2.105 10.364 5.265 14.455 9.278 4.034 4.058 7.178 8.84 9.249 14.065 2.269 5.846 3.391 12.038 3.308 18.268zM279.743 969.485c0.095-4.953-0.691-9.888-2.329-14.591-1.372-4.027-3.603-7.744-6.554-10.912-2.872-3.001-6.408-5.351-10.352-6.887-8.714-3.191-18.358-3.191-27.073 0-3.944 1.536-7.48 3.886-10.352 6.887-2.991 3.151-5.246 6.87-6.615 10.912-3.117 9.502-3.117 19.682 0 29.182 1.383 4.039 3.636 7.756 6.615 10.914 2.876 2.982 6.412 5.313 10.352 6.827 8.729 3.11 18.345 3.11 27.073 0 3.941-1.515 7.478-3.846 10.352-6.827 2.939-3.177 5.168-6.889 6.554-10.914 1.646-4.701 2.431-9.635 2.329-14.591z"></path>
<path d="M389.139 984.79l1.286 3.267c0.491-1.167 0.919-2.217 1.41-3.267 0.467-1.098 0.998-2.169 1.593-3.21l31.299-54.212c0.614-0.934 1.165-1.517 1.777-1.691 0.833-0.243 1.705-0.341 2.574-0.293h9.247v88.174h-10.964v-64.831c0-0.817 0-1.75 0-2.743-0.057-1.010-0.057-2.024 0-3.034l-31.482 54.97c-0.4 0.824-1.041 1.519-1.843 2.005-0.805 0.488-1.738 0.743-2.691 0.738h-1.777c-0.953 0.012-1.891-0.241-2.696-0.729-0.805-0.486-1.443-1.186-1.836-2.015l-32.404-55.32c0 1.050 0 2.1 0 3.151s0 1.984 0 2.801v64.833h-10.595v-88h9.247c0.869-0.048 1.741 0.050 2.574 0.293 0.76 0.357 1.365 0.955 1.715 1.691l31.975 54.27c0.626 1.005 1.16 2.058 1.591 3.153z"></path>
<path d="M506.93 980.409v33.028h-12.252v-88.054h27.319c5.158-0.095 10.3 0.555 15.253 1.924 3.965 1.072 7.642 2.941 10.781 5.487 2.72 2.384 4.818 5.341 6.125 8.635 1.446 3.594 2.153 7.416 2.081 11.264 0.055 3.86-0.717 7.692-2.265 11.262-1.474 3.377-3.736 6.392-6.616 8.811-3.143 2.65-6.837 4.639-10.842 5.834-4.768 1.453-9.757 2.143-14.762 2.043l-14.822-0.233zM506.93 970.954h14.822c3.22 0.040 6.425-0.412 9.495-1.341 2.531-0.812 4.865-2.103 6.861-3.794 1.841-1.615 3.265-3.613 4.165-5.837 1.003-2.35 1.503-4.87 1.469-7.411 0.143-2.446-0.276-4.894-1.229-7.173-0.953-2.277-2.412-4.329-4.284-6.013-4.679-3.482-10.557-5.168-16.477-4.727h-14.822v36.295z"></path>
<path d="M671.577 1013.555h-9.678c-0.972 0.036-1.924-0.252-2.696-0.817-0.695-0.55-1.241-1.25-1.593-2.043l-8.33-21.302h-41.834l-8.637 21.302c-0.317 0.779-0.845 1.465-1.531 1.984-0.779 0.598-1.757 0.91-2.758 0.876h-9.678l36.752-88.183h12.74l37.243 88.183zM610.937 980.816h34.547l-14.579-35.892c-1.114-2.701-2.036-5.47-2.758-8.287l-1.407 4.61c-0.429 1.4-0.919 2.684-1.348 3.734l-14.455 35.835z"></path>
<path d="M724.499 925.782c0.733 0.383 1.362 0.922 1.838 1.576l53.596 66.472c0-1.050 0-2.1 0-3.093 0-0.991 0-1.984 0-2.917v-62.445h10.964v88.181h-6.125c-0.869 0.026-1.731-0.155-2.51-0.524-0.757-0.422-1.422-0.976-1.96-1.634l-53.536-66.415c0.060 1.010 0.060 2.024 0 3.034 0 0.993 0 1.869 0 2.686v62.852h-10.964v-88.181h6.494c0.757-0.021 1.51 0.119 2.203 0.407z"></path>
<path d="M881.185 978.484v35.016h-12.252v-35.016l-33.873-53.107h10.966c0.943-0.052 1.877 0.217 2.634 0.76 0.667 0.564 1.226 1.236 1.653 1.984l21.194 34.256c0.857 1.46 1.593 2.801 2.205 4.086s1.103 2.508 1.531 3.734l1.593-3.794c0.593-1.386 1.288-2.731 2.081-4.027l20.887-34.49c0.441-0.688 0.976-1.317 1.593-1.867 0.726-0.605 1.669-0.919 2.634-0.876h11.088l-33.935 53.341z"></path>
<path d="M383.076 777.39c5.33 0.641 10.719 1.167 16.17 1.634 82.649-35.226 152.566-92.879 201.014-165.752 48.447-72.875 73.276-157.736 71.38-243.981l-91.084-86.778c18.52 91.822 9.857 186.742-25.019 274.141-34.878 87.4-94.591 163.828-172.461 220.736z"></path>
<path d="M350.551 773.353l2.45 0.467c83.211-56.706 146.653-135.892 182.12-227.318 35.469-91.424 41.331-190.886 16.829-285.52l-129.734-123.598c52.474 101.597 73.595 215.296 60.909 327.879-12.688 112.583-58.661 219.422-132.575 308.091z"></path>
<path d="M790.53 471.185c-22.040 94.763-75.571 180.224-152.643 243.7-22.509 18.639-46.787 35.245-72.523 49.602 62.759-17.572 120.441-48.645 168.603-90.815 48.161-42.172 85.516-94.318 109.18-152.416l-52.617-50.071z"></path>
<path d="M769.888 457.233l-74.914-71.373c-1.431 81.372-25.712 160.894-70.318 230.3-44.606 69.408-107.908 126.164-183.329 164.376h0.367c16.808-0.007 33.599-0.962 50.29-2.86 70.485-27.41 132.749-71.016 181.241-126.931s81.701-122.397 96.663-193.512z"></path>
<path d="M361.393 85.261l-89.369-85.261c-79.892 29.413-148.602 81.121-197.138 148.355s-74.637 146.862-74.886 228.463v0c0.299 90.167 32.154 177.662 90.521 248.639s139.913 121.382 231.732 143.236c81.965-95.144 129.955-212.709 136.992-335.612 7.039-122.904-27.238-244.745-97.852-347.819z"></path>
<path d="M976.372 444.111c-0.324-106.977-45.073-209.485-124.471-285.13s-186.992-118.278-299.277-118.586c-51.886-0.051-103.331 9.071-151.723 26.903l547.173 521.306c18.734-46.082 28.331-95.075 28.298-144.494z"></path>
</svg>
