<!-- Generated by IcoMoon.io -->
<svg version="1.1" xmlns="http://www.w3.org/2000/svg" width="1981" height="1024" viewBox="0 0 1981 1024">
<title></title>
<g id="icomoon-ignore">
</g>
<path d="M995.962 475.343c-9.303-13.581-13.755-29.636-12.698-45.793v-66.397c0-20.353 4.21-35.82 12.626-46.401 8.419-10.583 22.88-15.852 43.38-15.805 19.262 0 32.937 4.501 41.022 13.508 8.82 11.491 13.112 25.542 12.128 39.716v15.603h-34.46v-15.805c0.122-5.173-0.211-10.347-0.997-15.467-0.496-3.502-2.231-6.741-4.924-9.187-3.537-2.636-7.996-3.916-12.484-3.58-4.722-0.334-9.403 1.015-13.127 3.782-3.003 2.711-5.002 6.262-5.708 10.131-0.988 5.421-1.443 10.915-1.356 16.415v80.578c-0.543 7.776 0.977 15.554 4.423 22.628 1.714 2.393 4.094 4.292 6.876 5.483 2.783 1.193 5.859 1.632 8.891 1.271 4.414 0.345 8.795-0.966 12.199-3.646 2.809-2.638 4.615-6.082 5.138-9.795 0.804-5.345 1.162-10.743 1.069-16.144v-16.344h34.46v14.926c0.968 14.775-3.219 29.44-11.914 41.744-7.918 9.859-21.404 14.79-41.236 14.79-19.834 0-34.818-5.267-43.309-16.21z"></path>
<path d="M1139.438 476.020c-8.704-10.336-13.056-25.397-13.056-45.323v-69.839c0-19.723 4.352-34.651 13.056-44.782s23.258-15.175 43.662-15.128c20.262 0 34.745 5.042 43.449 15.128 8.704 10.131 13.127 25.059 13.127 44.782v69.839c0 19.723-4.423 34.854-13.27 45.254-8.846 10.403-23.258 15.603-43.306 15.603-20.046 0-34.887-5.267-43.662-15.534zM1199.153 459.268c3.119-6.473 4.537-13.564 4.138-20.669v-85.508c0.401-6.968-0.995-13.922-4.067-20.264-1.747-2.444-4.187-4.374-7.037-5.567-2.852-1.195-5.999-1.605-9.087-1.187-3.094-0.41-6.249 0.007-9.109 1.2s-5.314 3.117-7.086 5.554c-3.137 6.324-4.559 13.288-4.138 20.264v85.914c-0.432 7.108 0.988 14.207 4.138 20.669 2.010 2.179 4.488 3.925 7.268 5.122 2.783 1.195 5.801 1.814 8.855 1.814 3.056 0 6.075-0.619 8.855-1.814 2.78-1.198 5.26-2.943 7.268-5.122v-0.405z"></path>
<path d="M1281.124 302.979h37.1l27.895 128.857 28.538-128.857h36.1l3.64 185.994h-26.684l-2.854-129.264-27.539 129.264h-21.404l-28.538-129.739-2.638 129.739h-26.969l3.352-185.994z"></path>
<path d="M1455.992 302.979h57.787c33.293 0 49.94 17.604 49.94 52.812 0 33.723-17.526 50.563-52.58 50.517h-19.69v82.666h-35.673l0.216-185.994zM1505.36 382.468c3.526 0.423 7.106 0.118 10.492-0.897 3.388-1.015 6.502-2.714 9.129-4.98 4.089-6.28 5.895-13.659 5.136-21.003 0.187-5.674-0.387-11.346-1.712-16.883-0.508-1.85-1.4-3.586-2.627-5.104-1.224-1.518-2.756-2.792-4.508-3.744-4.951-2.248-10.425-3.27-15.91-2.972h-13.84v55.583h13.84z"></path>
<path d="M1615.162 302.979h38.311l39.31 185.994h-33.247l-7.776-42.886h-34.175l-7.989 42.886h-33.745l39.31-185.994zM1647.908 424.544l-13.341-78.071-13.341 78.071h26.682z"></path>
<path d="M1724.53 302.979h24.972l47.801 106.098v-106.098h29.607v185.994h-23.757l-48.086-110.759v110.759h-30.609l0.071-185.994z"></path>
<path d="M1896.257 418.057l-39.738-114.817h33.46l24.258 73.752 22.757-73.752h32.748l-39.239 114.817v70.916h-34.246v-70.916z"></path>
<path d="M1051.043 570.303v9.726h-29.108v75.58h-12.199v-75.58h-29.251v-9.726h70.558z"></path>
<path d="M1142.29 655.614h-9.416c-0.957 0.058-1.901-0.232-2.64-0.81-0.712-0.494-1.258-1.175-1.569-1.959l-8.419-20.26h-40.381l-8.419 20.26c-0.238 0.848-0.679 1.634-1.284 2.297-0.746 0.565-1.685 0.853-2.64 0.81h-9.416l35.673-85.299h12.413l36.1 84.961zM1083.216 623.939h33.676l-14.269-34.714c-1.053-2.625-1.934-5.309-2.64-8.036-0.499 1.621-0.928 3.174-1.356 4.523l-1.284 3.58-14.127 34.647z"></path>
<path d="M1203.79 647.237c2.235 0.111 4.472 0.111 6.707 0 1.928-0.189 3.838-0.528 5.708-1.013 1.747-0.407 3.464-0.926 5.136-1.554 1.569-0.608 3.139-1.351 4.782-2.095v-19.182h-14.269c-0.354 0.018-0.706-0.031-1.037-0.149-0.332-0.116-0.634-0.296-0.89-0.528-0.234-0.191-0.419-0.43-0.543-0.699-0.122-0.269-0.18-0.561-0.169-0.855v-6.551h27.681v32.692c-2.259 1.532-4.646 2.885-7.135 4.054-2.544 1.189-5.193 2.159-7.918 2.905-2.918 0.813-5.901 1.398-8.92 1.754-3.457 0.365-6.934 0.545-10.416 0.541-6.153 0.049-12.257-1.028-17.978-3.174-5.343-2.032-10.195-5.067-14.269-8.915-3.971-3.889-7.099-8.479-9.203-13.51-2.251-5.654-3.364-11.656-3.283-17.697-0.073-6.079 1.013-12.121 3.212-17.833 2.050-5.053 5.185-9.655 9.203-13.508 4.072-3.838 8.927-6.85 14.269-8.849 6.108-2.177 12.593-3.252 19.12-3.174 3.321-0.004 6.638 0.243 9.917 0.741 2.898 0.447 5.743 1.173 8.49 2.162 2.495 0.888 4.886 2.021 7.135 3.379 2.186 1.331 4.261 2.823 6.206 4.457l-3.424 5.269c-0.269 0.481-0.668 0.886-1.158 1.171s-1.051 0.441-1.625 0.45c-0.79-0.024-1.556-0.258-2.213-0.675-1.071-0.541-2.211-1.215-3.495-2.026-1.518-0.902-3.117-1.67-4.782-2.297-2.126-0.808-4.321-1.44-6.563-1.892-2.99-0.521-6.024-0.77-9.060-0.744-4.708-0.049-9.381 0.755-13.771 2.364-3.969 1.509-7.549 3.813-10.487 6.756-2.956 3.065-5.216 6.676-6.636 10.605-3.188 9.238-3.188 19.198 0 28.436 1.563 4.011 3.991 7.671 7.135 10.741 2.927 2.927 6.478 5.229 10.416 6.754 4.537 1.476 9.345 2.050 14.127 1.69z"></path>
<path d="M1317.512 645.884h38.957v9.726h-50.871v-85.306h12.201l-0.287 75.58z"></path>
<path d="M1396.992 655.609h-12.201v-85.306h12.201v85.306z"></path>
<path d="M1442.366 570.7c0.723 0.392 1.356 0.919 1.854 1.554l52.153 64.303c-0.071-1.013-0.071-2.028 0-3.041 0-0.944 0-1.89 0-2.769v-60.79h10.63v85.646h-6.135c-0.91 0.071-1.821-0.091-2.64-0.472-0.741-0.425-1.394-0.975-1.926-1.621l-52.082-64.236c0 1.013 0 1.959 0 2.905s0 1.823 0 2.633v60.79h-10.202v-85.308h6.351c0.688 0 1.369 0.138 1.997 0.405z"></path>
<path d="M1596.826 570.303v9.39h-43.233v28.164h35.030v9.051h-35.030v29.111h43.233v9.387h-55.79v-85.103h55.79z"></path>
<path d="M318.408 43.496l541.718 145.616v510.264l-541.718-145.548v-510.332zM283.664 0v578.616l611.137 164.325v-578.548l-611.137-164.393z"></path>
<path d="M611.206 1011.538l-611.206-164.463v-578.553l611.206 164.394v578.622z"></path>
<path d="M293.795 36.944l534.655 143.79-227.375 215.314-534.725-143.859 227.444-215.245zM283.664 0l-283.664 268.535 611.206 164.39 283.592-268.535-611.134-164.39z"></path>
<path d="M645.594 978.989l249.204-235.979-249.204-67.065v303.044z"></path>
</svg>
