<!-- Generated by IcoMoon.io -->
<svg version="1.1" xmlns="http://www.w3.org/2000/svg" width="1285" height="1024" viewBox="0 0 1285 1024">
<title></title>
<g id="icomoon-ignore">
</g>
<path d="M97.773 855.752c5.008 6.222 7.677 14.018 7.537 22.018 0.256 5.218-0.661 10.427-2.683 15.242s-5.096 9.111-8.996 12.571c-9.73 7.379-21.784 10.985-33.949 10.157h-59.682v-139.545h58.46c11.54-0.771 22.988 2.506 32.388 9.27 3.775 3.172 6.765 7.183 8.733 11.713 1.968 4.532 2.86 9.46 2.606 14.397 0.343 7.697-2.065 15.266-6.79 21.338-4.536 5.543-10.805 9.388-17.789 10.907 7.918 1.451 15.065 5.678 20.166 11.931zM27.77 834.686h24.987c5.679 0.423 11.319-1.224 15.888-4.636 1.876-1.706 3.336-3.824 4.266-6.188s1.306-4.913 1.098-7.447c0.176-2.523-0.207-5.055-1.123-7.414-0.916-2.357-2.341-4.482-4.173-6.218-4.706-3.51-10.521-5.181-16.363-4.704h-24.579v36.607zM71.089 888.2c2.005-1.747 3.582-3.935 4.606-6.395s1.47-5.124 1.301-7.785c0.153-2.691-0.313-5.381-1.36-7.865-1.048-2.482-2.65-4.689-4.683-6.451-4.889-3.638-10.901-5.425-16.975-5.044h-26.209v38.38h26.548c5.976 0.346 11.891-1.362 16.771-4.841z"></path>
<path d="M217.274 915.748l-32.523-54.536h-12.222v54.536h-27.974v-139.545h52.96c13.349-0.937 26.546 3.309 36.869 11.861 7.403 7.573 11.868 17.554 12.591 28.14 0.721 10.586-2.346 21.084-8.654 29.6-6.534 7.517-15.458 12.528-25.258 14.179l34.628 55.764h-30.418zM172.529 842.192h22.882c15.888 0 23.832-7.044 23.832-21.134 0.163-2.878-0.272-5.756-1.279-8.456-1.005-2.699-2.558-5.159-4.56-7.225-5.021-4.192-11.487-6.225-17.993-5.658h-23.153l0.271 42.472z"></path>
<path d="M370.18 887.658h-55.745l-9.843 28.086h-29.332l51.196-137.979h31.707l50.991 137.979h-29.33l-9.643-28.086zM362.712 866.524l-20.369-58.9-20.369 58.9h40.738z"></path>
<path d="M561.586 915.737h-27.77l-62.264-94.894v94.894h-27.702v-139.545h27.702l62.264 95.439v-95.439h27.77v139.545z"></path>
<path d="M720.059 882.342c-5.741 10.536-14.491 19.105-25.123 24.609-12.088 6.131-25.504 9.153-39.041 8.796h-49.431v-139.547h49.431c13.515-0.355 26.912 2.593 39.041 8.591 10.63 5.377 19.388 13.863 25.123 24.336 5.715 11.349 8.693 23.89 8.693 36.607 0 12.719-2.978 25.26-8.693 36.609zM688.283 879.002c7.926-9.27 12.284-21.086 12.284-33.302 0-12.218-4.357-24.031-12.284-33.302-9.58-8.397-22.073-12.661-34.764-11.863h-19.284v90.328h19.284c12.691 0.797 25.184-3.464 34.764-11.861z"></path>
<path d="M387.562 0c0 0 358.433 135.865 350.829 332.471v332.539c0 0-358.163-135.933-350.694-332.539l-0.135-332.471z"></path>
<path d="M1057.716 587.155c67.693-46.773 145.994-75.745 227.731-84.26v-104.097c-94.18 36.444-174.073 102.524-227.731 188.357z"></path>
<path d="M1017.046 618.516c55.407-112.013 151.458-198.449 268.401-241.531v-299.953c0 0-510.457 193.537-499.662 473.516v473.45c0 0 22.746-8.658 58.527-24.883 0-15.133 0-30.404 1.63-45.742 10.565-129.978 72.109-250.427 171.104-334.857z"></path>
<path d="M968.499 794.397c2.68-32.836 8.663-65.314 17.857-96.94-61.64 72.913-98.969 163.391-106.736 258.71-0.747 8.998-1.155 17.996-1.357 27.269 28.992-13.977 62.736-31.428 98.18-51.947-9.046-45.097-11.719-91.247-7.944-137.092z"></path>
<path d="M988.801 796.101c-3.399 41.479-1.275 83.225 6.314 124.141 139.462-83.783 296.171-213.24 290.13-369.695v-13.632c-99.642 11.192-192.865 54.926-265.347 124.479-16.97 43.104-27.452 88.504-31.097 134.706z"></path>
</svg>
