<!-- Generated by IcoMoon.io -->
<svg version="1.1" xmlns="http://www.w3.org/2000/svg" width="788" height="1024" viewBox="0 0 788 1024">
<title></title>
<g id="icomoon-ignore">
</g>
<path d="M334.316 57.787h2.69c4.982 0 10.362 0.501 15.693 0.952 23.485 1.656 46.805 5.173 69.742 10.516v-56.385c-23.617-5.925-47.703-9.763-71.985-11.467-9.216-0.701-19.029-1.152-29.091-1.402h-8.42c-48.736 0.183-97.262 6.44-144.466 18.628-53.765 13.409-105.371 34.398-153.284 62.344v559.197c46.134-25.066 95.223-44.195 146.111-56.936 40.179-10.252 81.255-16.557 122.646-18.828h1.644c6.926-0.351 13.85-0.551 20.972-0.603v-57.285c-53.784 0.691-107.296 7.802-159.411 21.181-19.279 5.008-37.91 10.415-55.396 16.425l-19.926 6.76v-436.011l8.519-4.106c65.009-30.827 135.32-48.764 207.085-52.83 0.597-0.044 1.197-0.044 1.794 0 7.92-0.401 15.892-0.601 23.712-0.601h8.968c4.135 0.1 8.269 0.2 12.404 0.451z"></path>
<path d="M474.797 116.821c-13.101 0-26.053-0.451-38.558-1.402-14.944-1.102-30.289-2.904-44.833-5.358-8.867-1.502-17.585-3.305-26.055-5.258v552.786c35.854 8.877 72.671 13.217 109.596 12.92 48.733-0.197 97.254-6.437 144.467-18.578 53.774-13.426 105.395-34.414 153.334-62.344v-549.232c-46.129 25.053-95.197 44.197-146.062 56.986-49.638 12.75-100.655 19.292-151.889 19.479zM695.832 126.386l19.927-6.71v436.159l-8.519 4.108c-32.675 15.545-66.798 27.808-101.874 36.604-42.594 11.022-86.384 16.689-130.369 16.876-13.151 0-26.203-0.551-38.857-1.652l-13.649-1.203v-448.528l15.892 1.052c11.557 0.751 23.513 1.102 36.515 1.102 55.838-0.199 111.439-7.33 165.537-21.232 18.582-4.907 37.065-10.416 55.396-16.575z"></path>
<path d="M53.901 831.262c-2.865-2.972-6.318-5.305-10.137-6.849s-7.918-2.265-12.031-2.115c-4.384-0.057-8.736 0.76-12.803 2.404-3.729 1.485-7.119 3.716-9.963 6.56-2.813 2.851-5.002 6.262-6.426 10.016-1.562 3.933-2.34 8.135-2.292 12.369v74.713c-0.178 5.266 0.826 10.502 2.939 15.323 1.764 3.83 4.31 7.243 7.472 10.016 2.986 2.515 6.491 4.328 10.262 5.309 3.633 1.020 7.387 1.544 11.159 1.552 4.161 0.041 8.279-0.847 12.056-2.603 3.734-1.634 7.118-3.982 9.963-6.91 2.774-2.903 4.987-6.3 6.526-10.016 1.597-3.767 2.41-7.824 2.391-11.918v-8.363h-19.528v6.66c0.058 2.274-0.331 4.537-1.146 6.66-0.636 1.591-1.604 3.025-2.84 4.206-1.21 0.977-2.597 1.709-4.085 2.154-1.319 0.439-2.696 0.675-4.085 0.701-1.744 0.203-3.509-0.061-5.119-0.764-1.61-0.705-3.006-1.824-4.047-3.243-1.841-3.003-2.743-6.491-2.59-10.016v-69.656c-0.121-3.862 0.7-7.696 2.391-11.166 1.014-1.577 2.448-2.836 4.139-3.633s3.571-1.099 5.425-0.874c1.683-0.059 3.356 0.291 4.874 1.024s2.837 1.825 3.844 3.182c2.185 2.869 3.328 6.404 3.238 10.016v6.459h19.329v-7.611c0.039-4.47-0.772-8.907-2.391-13.070-1.443-3.915-3.663-7.491-6.526-10.516z"></path>
<path d="M169.923 830.405c-6.227-5.258-14.086-8.162-22.218-8.212-3.977 0.016-7.922 0.727-11.657 2.103-3.792 1.359-7.292 3.432-10.312 6.109-3.235 2.909-5.817 6.475-7.572 10.466-1.967 4.563-2.936 9.498-2.839 14.472v71.658c-0.135 5.039 0.835 10.049 2.839 14.671 1.767 3.854 4.352 7.272 7.572 10.016 2.985 2.773 6.491 4.917 10.312 6.309 3.735 1.375 7.68 2.087 11.657 2.103 3.978-0.008 7.924-0.719 11.657-2.103 3.886-1.412 7.47-3.552 10.561-6.309 3.115-2.794 5.625-6.203 7.373-10.016 2.005-4.622 2.974-9.632 2.839-14.671v-71.658c0.096-4.974-0.872-9.909-2.839-14.472-1.738-3.948-4.245-7.507-7.373-10.466zM160.806 927.002c0.164 1.91-0.099 3.832-0.772 5.626s-1.737 3.413-3.114 4.74c-2.579 2.162-5.832 3.348-9.191 3.348s-6.612-1.185-9.191-3.348c-1.377-1.327-2.442-2.946-3.114-4.74s-0.936-3.716-0.772-5.626v-71.658c-0.165-1.91 0.099-3.834 0.772-5.628s1.737-3.413 3.114-4.738c2.579-2.164 5.832-3.348 9.191-3.348s6.612 1.184 9.191 3.348c1.377 1.325 2.442 2.944 3.114 4.738s0.936 3.718 0.772 5.628v71.658z"></path>
<path d="M322.31 959.002v-135.656h-18.781l-24.659 71.81h-0.349l-24.858-71.81h-18.582v135.656h19.377v-82.525h0.349l18.981 58.338h9.663l19.131-58.338h0.349v82.525h19.377z"></path>
<path d="M432.404 832.857c-2.983-3.346-6.751-5.894-10.959-7.41-4.535-1.475-9.283-2.186-14.048-2.103h-28.794v135.654h19.328v-52.98h9.964c6.030 0.276 12.030-1 17.436-3.704 4.393-2.44 8.058-6.020 10.61-10.366 2.237-3.608 3.744-7.625 4.435-11.817 0.76-5.106 1.111-10.264 1.046-15.425 0.187-6.514-0.449-13.024-1.894-19.379-1.288-4.693-3.74-8.984-7.123-12.469zM422.439 874.22c-0.083 2.456-0.695 4.864-1.792 7.060-1.105 2.087-2.853 3.755-4.982 4.758-2.863 1.28-5.986 1.865-9.116 1.703h-8.818v-46.119h9.962c3.001-0.148 5.992 0.435 8.72 1.701 1.997 1.146 3.584 2.901 4.533 5.008 1.056 2.383 1.631 4.953 1.694 7.562 0 2.853 0 5.858 0 9.013s0.199 6.41 0 9.314h-0.201z"></path>
<path d="M523.965 823.345h-15.84l-29.891 135.656h19.33l5.679-29.145h26.352l5.679 29.145h19.328l-30.637-135.656zM506.132 911.38l9.515-49.176h0.349l9.464 49.176h-19.328z"></path>
<path d="M648.856 905.070h-0.349l-29.194-81.725h-18.58v135.656h19.328v-81.573h0.398l29.54 81.573h18.184v-135.656h-19.328v81.725z"></path>
<path d="M766.968 823.345l-15.541 53.933h-0.4l-15.541-53.933h-20.476l26.553 78.32v57.336h19.328v-57.336l26.553-78.32h-20.476z"></path>
<path d="M0 997.311h9.316v26.138h6.327v-26.138h9.266v-5.358h-24.908v5.358z"></path>
<path d="M78.311 991.953l-12.205 31.496h6.725l2.59-7.16h12.554l2.69 7.16h6.875l-12.504-31.496h-6.725zM77.314 1010.981l4.284-11.668 4.284 11.668h-8.568z"></path>
<path d="M155.725 1011.832h7.273v4.057c-2.124 1.703-4.756 2.637-7.472 2.655-1.27 0.071-2.539-0.165-3.701-0.687-1.161-0.524-2.181-1.317-2.975-2.318-1.67-2.399-2.494-5.289-2.341-8.212 0-7.010 3.039-10.516 9.067-10.516 1.587-0.16 3.177 0.26 4.484 1.178s2.243 2.276 2.64 3.828l6.227-1.201c-1.345-6.16-5.779-9.263-13.351-9.263-4.050-0.108-7.988 1.343-11.009 4.057-1.587 1.566-2.815 3.462-3.598 5.555s-1.102 4.332-0.936 6.561c-0.184 4.311 1.258 8.531 4.035 11.819 1.543 1.591 3.411 2.826 5.475 3.621s4.275 1.13 6.481 0.985c4.928 0.138 9.716-1.658 13.351-5.008v-12.418h-13.65v5.307z"></path>
<path d="M234.784 991.953h-6.376v31.496h22.069v-5.356h-15.693v-26.14z"></path>
<path d="M301.637 991.953h-6.376v31.496h6.376v-31.496z"></path>
<path d="M366.996 1012.984l-12.902-21.031h-6.177v31.496h5.927v-20.58l12.654 20.58h6.327v-31.496h-5.829v21.031z"></path>
<path d="M426.077 1009.579h15.693v-5.358h-15.693v-6.91h16.888v-5.358h-23.264v31.496h23.912v-5.356h-17.536v-8.513z"></path>
<path d="M569.348 1004.371h-12.404v-12.418h-6.327v31.496h6.327v-13.769h12.404v13.769h6.327v-31.496h-6.327v12.418z"></path>
<path d="M628.779 1009.579h15.742v-5.358h-15.742v-6.91h16.937v-5.358h-23.264v31.496h23.863v-5.356h-17.536v-8.513z"></path>
<path d="M709.382 1009.583c5.48-0.853 8.269-3.757 8.269-8.765 0.16-1.339-0.043-2.696-0.587-3.931-0.544-1.233-1.408-2.298-2.501-3.080-2.853-1.432-6.036-2.072-9.216-1.853h-13.351v31.498h6.327v-13.168h1.245c1.349-0.085 2.698 0.156 3.936 0.701 0.924 0.569 1.694 1.361 2.241 2.302l6.875 10.016h7.572l-3.836-6.16c-1.696-3.040-4.084-5.632-6.973-7.56zM703.006 1005.225h-4.683v-7.912h4.982c2.17-0.175 4.354 0.081 6.426 0.752 0.461 0.406 0.823 0.912 1.063 1.479s0.349 1.182 0.321 1.798c-0.030 0.616-0.195 1.217-0.486 1.759-0.291 0.544-0.701 1.012-1.197 1.375-2.080 0.638-4.256 0.892-6.426 0.75z"></path>
<path d="M770.156 1009.579h15.693v-5.358h-15.693v-6.91h16.937v-5.358h-23.314v31.496h23.912v-5.356h-17.536v-8.513z"></path>
</svg>
